<?xml version="1.0" standalone="no"?>
<!DOCTYPE svg PUBLIC "-//W3C//DTD SVG 1.1//EN" "http://www.w3.org/Graphics/SVG/1.1/DTD/svg11.dtd" >
<svg xmlns="http://www.w3.org/2000/svg" xmlns:xlink="http://www.w3.org/1999/xlink" version="1.1">
<metadata>
Created by FontForge 20190801 at Sun Mar 29 19:00:38 2020
 By Jimmy Wärting
</metadata>
<defs>
<font id="W95FARegular" horiz-adv-x="500" >
  <font-face 
    font-family="W95FA"
    font-weight="400"
    font-stretch="normal"
    units-per-em="1000"
    panose-1="0 0 0 0 0 0 0 0 0 0"
    ascent="800"
    descent="-200"
    x-height="480"
    cap-height="720"
    bbox="-21 -200 930 928"
    underline-thickness="0"
    underline-position="0"
    unicode-range="U+000A-E900"
  />
<missing-glyph horiz-adv-x="527" 
d="M50 700h427v-700h-427v700zM78 680l185 -309l186 309h-371zM251 350l-180 300v-601zM264 329l-185 -308h370zM276 350l181 -303v605z" />
    <glyph glyph-name=".notdef" horiz-adv-x="527" 
d="M50 700h427v-700h-427v700zM78 680l185 -309l186 309h-371zM251 350l-180 300v-601zM264 329l-185 -308h370zM276 350l181 -303v605z" />
    <glyph glyph-name=".null" horiz-adv-x="0" 
 />
    <glyph glyph-name=".null" horiz-adv-x="0" 
 />
    <glyph glyph-name="controlLF" unicode="&#xa;" horiz-adv-x="0" 
 />
    <glyph glyph-name="controlCR" unicode="&#xd;" horiz-adv-x="0" 
 />
    <glyph glyph-name="space" unicode=" " horiz-adv-x="219" 
 />
    <glyph glyph-name="exclam" unicode="!" horiz-adv-x="180" 
d="M130 0h-80v80h80v-80zM130 160h-80v560h80v-560z" />
    <glyph glyph-name="quotedbl" unicode="&#x22;" horiz-adv-x="356" 
d="M50 529v240h80v-240h-80zM226 769h80v-240h-80v240z" />
    <glyph glyph-name="quotedbl" unicode="&#x201d;" horiz-adv-x="356" 
d="M50 529v240h80v-240h-80zM226 769h80v-240h-80v240z" />
    <glyph glyph-name="quotedbl" unicode="&#x201c;" horiz-adv-x="356" 
d="M50 529v240h80v-240h-80zM226 769h80v-240h-80v240z" />
    <glyph glyph-name="numbersign" unicode="#" horiz-adv-x="580" 
d="M530 480h-80v-240h80v-80h-80v-160h-80v160h-160v-160h-80v160h-80v80h80v240h-80v80h80v160h80v-160h160v160h80v-160h80v-80zM370 240v240h-160v-240h160z" />
    <glyph glyph-name="dollar" unicode="$" 
d="M130 160h-80v80h80v-80zM130 480h-80v160h80v-160zM450 160h-80v160h80v-160zM450 560h-80v80h80v-80zM290 720h80v-80h-80v-240h80v-80h-80v-160h80v-80h-80v-80h-80v80h-80v80h80v240h-80v80h80v160h-80v80h80v80h80v-80z" />
    <glyph glyph-name="percent" unicode="%" horiz-adv-x="660" 
d="M530 0h-160v80h160v-80zM530 160h-160v80h160v-80zM370 560h-80v80h80v-80zM290 480h-160v80h160v-80zM290 640h-160v80h160v-80zM130 560h-80v80h80v-80zM370 80h-80v80h80v-80zM530 480h-80v80h80v-80zM450 400h-80v80h80v-80zM370 320h-80v80h80v-80zM610 80h-80v80
h80v-80zM610 560h-80v80h80v-80zM290 240h-80v80h80v-80zM130 80h-80v80h80v-80zM210 160h-80v80h80v-80z" />
    <glyph glyph-name="ampersand" unicode="&#x26;" 
d="M130 80h-80v240h80v-240zM130 480h-80v160h80v-160zM290 0h-160v80h160v-80zM450 0h-80v80h80v-80zM210 640h-80v80h80v-80zM290 240h-80v80h80v-80zM450 240h-80v80h80v-80zM370 80h-80v160h80v-160zM210 320h-80v160h80v-160zM290 480h-80v160h80v-160z" />
    <glyph glyph-name="quotesingle" unicode="'" horiz-adv-x="180" 
d="M130 529h-80v240h80v-240z" />
    <glyph glyph-name="quotesingle" unicode="&#x2019;" horiz-adv-x="180" 
d="M130 529h-80v240h80v-240z" />
    <glyph glyph-name="quotesingle" unicode="&#x2018;" horiz-adv-x="180" 
d="M130 529h-80v240h80v-240z" />
    <glyph glyph-name="parenleft" unicode="(" horiz-adv-x="260" 
d="M130 -6h-80v720h80v-720zM210 -86h-80v80h80v-80zM210 714h-80v80h80v-80z" />
    <glyph glyph-name="parenright" unicode=")" horiz-adv-x="260" 
d="M130 -100h-80v80h80v-80zM210 -20h-80v720h80v-720zM130 700h-80v80h80v-80z" />
    <glyph glyph-name="asterisk" unicode="*" horiz-adv-x="340" 
d="M290 529h-80v80h80v-80zM130 529h-80v80h80v-80zM290 689h-80v80h80v-80zM130 689h-80v80h80v-80zM210 609h-80v80h80v-80z" />
    <glyph glyph-name="plus" unicode="+" 
d="M290 240h160v-80h-160v-160h-80v160h-160v80h160v160h80v-160z" />
    <glyph glyph-name="comma" unicode="," horiz-adv-x="260" 
d="M130 -100h-80v80h80v-80zM210 -20h-80v80h80v-80z" />
    <glyph glyph-name="hyphen" unicode="-" horiz-adv-x="499" 
d="M50 266h400v-80h-400v80z" />
    <glyph glyph-name="period" unicode="." horiz-adv-x="180" 
d="M130 0h-80v80h80v-80z" />
    <glyph glyph-name="slash" unicode="/" horiz-adv-x="420" 
d="M210 160h-80v160h80v-160zM130 0h-80v160h80v-160zM290 320h-80v160h80v-160zM370 480h-80v240h80v-240z" />
    <glyph glyph-name="zero" unicode="0" 
d="M130 80h-80v560h80v-560zM370 0h-240v80h240v-80zM370 640h-240v80h240v-80zM450 80h-80v560h80v-560z" />
    <glyph glyph-name="one" unicode="1" horiz-adv-x="340" 
d="M210 720h80v-720h-80v560h-160v80h160v80z" />
    <glyph glyph-name="two" unicode="2" 
d="M130 560h-80v80h80v-80zM450 400h-80v240h80v-240zM50 160h80v-80h320v-80h-400v160zM370 640h-240v80h240v-80zM210 160h-80v80h80v-80zM290 240h-80v80h80v-80zM370 320h-80v80h80v-80z" />
    <glyph glyph-name="three" unicode="3" 
d="M370 320h-160v80h160v-80zM370 0h-240v80h240v-80zM450 80h-80v240h80v-240zM130 80h-80v80h80v-80zM130 560h-80v80h80v-80zM450 400h-80v240h80v-240zM370 640h-240v80h240v-80z" />
    <glyph glyph-name="four" unicode="4" 
d="M210 320h-80v160h80v-160zM370 240h80v-80h-80v-160h-80v160h-240v160h80v-80h160v240h-80v160h80v80h80v-480z" />
    <glyph glyph-name="five" unicode="5" 
d="M370 0h-240v80h240v-80zM450 80h-80v320h80v-320zM130 80h-80v80h80v-80zM450 640h-320v-160h240v-80h-240v-80h-80v400h400v-80z" />
    <glyph glyph-name="six" unicode="6" 
d="M370 0h-240v80h240v-80zM450 80h-80v240h80v-240zM50 80v560h80v-240h240v-80h-240v-240h-80zM370 640h-240v80h240v-80zM450 560h-80v80h80v-80z" />
    <glyph glyph-name="seven" unicode="7" 
d="M290 240h-80v160h80v-160zM210 0h-80v240h80v-240zM370 400h-80v160h80v-160zM50 720h400v-160h-80v80h-320v80z" />
    <glyph glyph-name="eight" unicode="8" 
d="M130 80h-80v240h80v-240zM450 80h-80v240h80v-240zM370 0h-240v80h240v-80zM130 400h-80v240h80v-240zM370 320h-240v80h240v-80zM450 400h-80v240h80v-240zM370 640h-240v80h240v-80z" />
    <glyph glyph-name="nine" unicode="9" 
d="M130 400h-80v240h80v-240zM130 80h-80v80h80v-80zM370 0h-240v80h240v-80zM370 640h80v-560h-80v240h-240v80h240v240zM370 640h-240v80h240v-80z" />
    <glyph glyph-name="colon" unicode=":" horiz-adv-x="180" 
d="M130 0h-80v80h80v-80zM130 400h-80v80h80v-80z" />
    <glyph glyph-name="semicolon" unicode=";" horiz-adv-x="260" 
d="M210 -20h-80v80h80v-80zM130 -100h-80v80h80v-80zM210 200h-80v80h80v-80z" />
    <glyph glyph-name="less" unicode="&#x3c;" 
d="M370 -6h-80v80h80v-80zM450 -86h-80v80h80v-80zM290 74h-80v80h80v-80zM370 553v-80h-80v80h80v80h80v-80h-80zM210 313h-80v-79h80v-80h-80v79h-80v81h80v79h80v-80zM290 393h-80v80h80v-80z" />
    <glyph glyph-name="equal" unicode="=" 
d="M50 370h400v-80h-400v80zM50 194h400v-80h-400v80z" />
    <glyph glyph-name="greater" unicode="&#x3e;" 
d="M210 -6h-80v80h80v-80zM130 -86h-80v80h80v-80zM290 74h-80v80h80v-80zM370 314h80v-81h-80v-79h-80v80h80v79h-80v80h80v-79zM290 393h-80v80h80v-80zM130 553h80v-80h-80v80h-80v80h80v-80z" />
    <glyph glyph-name="question" unicode="?" 
d="M290 160h-80v160h80v-160zM370 320h-80v80h80v-80zM290 0h-80v80h80v-80zM370 640h-240v80h240v-80zM130 560h-80v80h80v-80zM450 400h-80v240h80v-240z" />
    <glyph glyph-name="at" unicode="@" horiz-adv-x="900" 
d="M690 0h-400v80h400v-80zM370 560h240v-240h-80v160h-160v80zM530 240h-160v80h160v-80zM370 320h-80v160h80v-160zM130 240h-80v320h80v-320zM610 720h160v-160h-80v80h-80v80zM850 240h-240v80h160v240h80v-320zM130 560v160h160v-80h-80v-80h-80zM610 720h-320v80h320
v-80zM290 80h-160v160h80v-80h80v-80z" />
    <glyph glyph-name="A" unicode="A" horiz-adv-x="660" 
d="M370 560h-80v160h80v-160zM610 0h-80v160h80v-160zM450 400h-80v160h80v-160zM130 0h-80v160h80v-160zM450 400h80v-240h-400v240h80v-160h240v160zM290 400h-80v160h80v-160z" />
    <glyph glyph-name="B" unicode="B" 
d="M130 400h240v-80h-240v-240h240v-80h-320v720h320v-80h-240v-240zM450 80h-80v240h80v-240zM450 400h-80v240h80v-240z" />
    <glyph glyph-name="C" unicode="C" horiz-adv-x="580" 
d="M450 0h-320v80h320v-80zM530 80h-80v80h80v-80zM530 560h-80v80h80v-80zM450 640h-320v80h320v-80zM130 80h-80v560h80v-560z" />
    <glyph glyph-name="D" unicode="D" horiz-adv-x="580" 
d="M450 560h-80v80h80v-80zM130 640v-560h240v-80h-320v720h320v-80h-240zM450 80h-80v80h80v-80zM530 160h-80v400h80v-400z" />
    <glyph glyph-name="E" unicode="E" 
d="M450 640h-320v-240h240v-80h-240v-240h320v-80h-400v720h400v-80z" />
    <glyph glyph-name="F" unicode="F" 
d="M450 640h-320v-240h240v-80h-240v-320h-80v720h400v-80z" />
    <glyph glyph-name="G" unicode="G" horiz-adv-x="580" 
d="M530 560h-80v80h80v-80zM450 0v80h-80v80h80v160h-160v80h240v-400h-80zM370 0h-240v80h240v-80zM450 640h-320v80h320v-80zM130 80h-80v560h80v-560z" />
    <glyph glyph-name="H" unicode="H" horiz-adv-x="580" 
d="M450 720h80v-720h-80v320h-320v-320h-80v720h80v-320h320v320z" />
    <glyph glyph-name="I" unicode="I" horiz-adv-x="180" 
d="M130 0h-80v720h80v-720z" />
    <glyph glyph-name="J" unicode="J" horiz-adv-x="420" 
d="M290 0h-160v80h160v-80zM370 80h-80v640h80v-640zM130 80h-80v160h80v-160z" />
    <glyph glyph-name="K" unicode="K" horiz-adv-x="580" 
d="M290 480h-80v80h80v-80zM370 560h-80v80h80v-80zM450 640h-80v80h80v-80zM130 480h80v-160h-80v-320h-80v720h80v-240zM290 240h-80v80h80v-80zM530 0h-80v80h80v-80zM450 80h-80v80h80v-80zM370 160h-80v80h80v-80z" />
    <glyph glyph-name="L" unicode="L" 
d="M130 80h320v-80h-400v720h80v-640z" />
    <glyph glyph-name="M" unicode="M" horiz-adv-x="660" 
d="M370 80h-80v160h80v-160zM130 560h80v-160h-80v-400h-80v720h80v-160zM450 240h-80v160h80v-160zM530 720h80v-720h-80v400h-80v160h80v160zM290 240h-80v160h80v-160z" />
    <glyph glyph-name="N" unicode="N" horiz-adv-x="580" 
d="M290 320h-80v160h80v-160zM130 640h80v-160h-80v-480h-80v720h80v-80zM450 720h80v-720h-80v80h-80v160h80v480zM370 240h-80v80h80v-80z" />
    <glyph glyph-name="O" unicode="O" horiz-adv-x="580" 
d="M130 80h-80v560h80v-560zM450 0h-320v80h320v-80zM530 80h-80v560h80v-560zM450 640h-320v80h320v-80z" />
    <glyph glyph-name="P" unicode="P" horiz-adv-x="580" 
d="M130 640v-240h320v-80h-320v-320h-80v720h400v-80h-320zM530 400h-80v240h80v-240z" />
    <glyph glyph-name="Q" unicode="Q" horiz-adv-x="580" 
d="M530 -80h-80v80h80v-80zM130 80h-80v560h80v-560zM530 80h-80v-80h-320v80h240v80h80v480h80v-560zM370 160h-80v80h80v-80zM450 640h-320v80h320v-80z" />
    <glyph glyph-name="R" unicode="R" horiz-adv-x="580" 
d="M530 0h-80v320h80v-320zM130 400h320v-80h-320v-320h-80v720h400v-80h-320v-240zM530 400h-80v240h80v-240z" />
    <glyph glyph-name="S" unicode="S" 
d="M370 0h-240v80h240v-80zM450 80h-80v240h80v-240zM130 80h-80v80h80v-80zM370 640h-240v80h240v-80zM450 560h-80v80h80v-80zM130 400h-80v240h80v-240zM370 320h-240v80h240v-80z" />
    <glyph glyph-name="T" unicode="T" 
d="M50 720h400v-80h-160v-640h-80v640h-160v80z" />
    <glyph glyph-name="U" unicode="U" horiz-adv-x="580" 
d="M450 0h-320v80h320v-80zM130 80h-80v640h80v-640zM530 80h-80v640h80v-640z" />
    <glyph glyph-name="V" unicode="V" horiz-adv-x="660" 
d="M290 160h-80v160h80v-160zM210 320h-80v240h80v-240zM130 560h-80v160h80v-160zM370 0h-80v160h80v-160zM610 560h-80v160h80v-160zM530 320h-80v240h80v-240zM450 160h-80v160h80v-160z" />
    <glyph glyph-name="W" unicode="W" horiz-adv-x="980" 
d="M130 560h-80v160h80v-160zM210 320h-80v240h80v-240zM290 160h-80v160h80v-160zM370 0h-80v160h80v-160zM690 0h-80v160h80v-160zM770 160h-80v160h80v-160zM850 320h-80v240h80v-240zM930 560h-80v160h80v-160zM450 160h-80v160h80v-160zM610 160h-80v160h80v-160z
M530 320h-80v240h80v-240z" />
    <glyph glyph-name="X" unicode="X" horiz-adv-x="660" 
d="M130 0h-80v160h80v-160zM210 160h-80v80h80v-80zM450 240h-80v80h80v-80zM610 0h-80v160h80v-160zM290 240h-80v80h80v-80zM530 160h-80v80h80v-80zM370 320h-80v80h80v-80zM610 560h-80v160h80v-160zM530 480h-80v80h80v-80zM450 400h-80v80h80v-80zM210 480h-80v80h80
v-80zM290 400h-80v80h80v-80zM130 560h-80v160h80v-160z" />
    <glyph glyph-name="Y" unicode="Y" horiz-adv-x="660" 
d="M130 560h-80v160h80v-160zM290 400h-80v80h80v-80zM370 0h-80v400h80v-400zM210 480h-80v80h80v-80zM610 560h-80v160h80v-160zM450 400h-80v80h80v-80zM530 480h-80v80h80v-80z" />
    <glyph glyph-name="Y" unicode="&#x178;" horiz-adv-x="660" 
d="M130 560h-80v160h80v-160zM290 400h-80v80h80v-80zM370 0h-80v400h80v-400zM210 480h-80v80h80v-80zM610 560h-80v160h80v-160zM450 400h-80v80h80v-80zM530 480h-80v80h80v-80z" />
    <glyph glyph-name="Y" unicode="&#xdd;" horiz-adv-x="660" 
d="M130 560h-80v160h80v-160zM290 400h-80v80h80v-80zM370 0h-80v400h80v-400zM210 480h-80v80h80v-80zM610 560h-80v160h80v-160zM450 400h-80v80h80v-80zM530 480h-80v80h80v-80z" />
    <glyph glyph-name="Z" unicode="Z" horiz-adv-x="660" 
d="M450 400h-80v80h80v-80zM530 480h-80v80h80v-80zM50 160h80v-80h480v-80h-560v160zM610 720v-160h-80v80h-480v80h560zM370 320h-80v80h80v-80zM210 160h-80v80h80v-80zM290 240h-80v80h80v-80z" />
    <glyph glyph-name="bracketleft" unicode="[" horiz-adv-x="260" 
d="M210 657h-80v-720h80v-80h-160v880h160v-80z" />
    <glyph glyph-name="backslash" unicode="\" horiz-adv-x="420" 
d="M210 320h-80v160h80v-160zM130 480h-80v240h80v-240zM290 160h-80v160h80v-160zM370 0h-80v160h80v-160z" />
    <glyph glyph-name="bracketright" unicode="]" horiz-adv-x="260" 
d="M50 737h160v-880h-160v80h80v720h-80v80z" />
    <glyph glyph-name="asciicircum" unicode="^" 
d="M130 514h-80v80h80v-80zM290 674h-80v80h80v-80zM210 594h-80v80h80v-80zM370 594h-80v80h80v-80zM450 514h-80v80h80v-80z" />
    <glyph glyph-name="underscore" unicode="_" horiz-adv-x="580" 
d="M530 0h-480v80h480v-80z" />
    <glyph glyph-name="a" unicode="a" 
d="M370 400h-240v80h240v-80zM130 80h-80v160h80v-160zM370 400h80v-400h-320v80h240v160h-240v80h240v80z" />
    <glyph glyph-name="b" unicode="b" 
d="M130 400v-320h240v-80h-320v720h80v-240h240v-80h-240zM450 80h-80v320h80v-320z" />
    <glyph glyph-name="c" unicode="c" 
d="M450 80h-80v80h80v-80zM130 80h-80v320h80v-320zM370 0h-240v80h240v-80zM370 400h-240v80h240v-80zM450 320h-80v80h80v-80z" />
    <glyph glyph-name="d" unicode="d" 
d="M130 80h-80v320h80v-320zM370 720h80v-720h-320v80h240v320h-240v80h240v240z" />
    <glyph glyph-name="e" unicode="e" 
d="M370 0h-240v80h240v-80zM450 80h-80v80h80v-80zM370 400h-240v80h240v-80zM450 240h-320v-160h-80v320h80v-80h240v80h80v-160z" />
    <glyph glyph-name="f" unicode="f" horiz-adv-x="260" 
d="M50 640h80v-160h80v-80h-80v-400h-80v640zM210 640h-80v80h80v-80z" />
    <glyph glyph-name="g" unicode="g" 
d="M370 -160h-320v80h320v-80zM130 80h-80v320h80v-320zM130 480h320v-560h-80v80h-240v80h240v320h-240v80z" />
    <glyph glyph-name="h" unicode="h" 
d="M130 720v-320h80v-80h-80v-320h-80v720h80zM370 400h-160v80h160v-80zM450 0h-80v400h80v-400z" />
    <glyph glyph-name="i" unicode="i" horiz-adv-x="180" 
d="M130 0h-80v480h80v-480zM130 640h-80v80h80v-80z" />
    <glyph glyph-name="j" unicode="j" horiz-adv-x="180" 
d="M130 -160h-80v640h80v-640zM130 640h-80v80h80v-80z" />
    <glyph glyph-name="k" unicode="k" 
d="M130 320h80v-80h-80v-240h-80v720h80v-400zM290 320h-80v80h80v-80zM370 400h-80v80h80v-80zM290 160h-80v80h80v-80zM370 80h-80v80h80v-80zM450 0h-80v80h80v-80z" />
    <glyph glyph-name="l" unicode="l" horiz-adv-x="180" 
d="M130 0h-80v720h80v-720z" />
    <glyph glyph-name="m" unicode="m" horiz-adv-x="660" 
d="M370 0h-80v400h80v-400zM50 480h240v-80h-160v-400h-80v480zM610 0h-80v400h80v-400zM530 400h-160v80h160v-80z" />
    <glyph glyph-name="n" unicode="n" 
d="M130 480v-80h80v-80h-80v-320h-80v480h80zM450 0h-80v400h80v-400zM370 400h-160v80h160v-80z" />
    <glyph glyph-name="o" unicode="o" 
d="M370 0h-240v80h240v-80zM130 80h-80v320h80v-320zM370 400h-240v80h240v-80zM450 80h-80v320h80v-320z" />
    <glyph glyph-name="p" unicode="p" 
d="M130 400v-320h240v-80h-240v-160h-80v640h320v-80h-240zM450 80h-80v320h80v-320z" />
    <glyph glyph-name="q" unicode="q" 
d="M130 80h-80v320h80v-320zM130 480h320v-640h-80v160h-240v80h240v320h-240v80z" />
    <glyph glyph-name="r" unicode="r" horiz-adv-x="260" 
d="M50 480h160v-80h-80v-400h-80v480z" />
    <glyph glyph-name="s" unicode="s" horiz-adv-x="420" 
d="M370 80h-80v80h80v-80zM290 160h-80v80h80v-80zM130 80h-80v80h80v-80zM290 0h-160v80h160v-80zM210 240h-80v80h80v-80zM370 320h-80v80h80v-80zM290 400h-160v80h160v-80zM130 320h-80v80h80v-80z" />
    <glyph glyph-name="t" unicode="t" horiz-adv-x="260" 
d="M210 400h-80v-320h-80v560h80v-160h80v-80zM210 0h-80v80h80v-80z" />
    <glyph glyph-name="u" unicode="u" 
d="M290 0h-160v80h160v-80zM130 80h-80v400h80v-400zM370 480h80v-480h-80v80h-80v80h80v320z" />
    <glyph glyph-name="v" unicode="v" 
d="M290 0h-80v160h80v-160zM210 160h-80v160h80v-160zM130 320h-80v160h80v-160zM370 160h-80v160h80v-160zM450 320h-80v160h80v-160z" />
    <glyph glyph-name="w" unicode="w" horiz-adv-x="660" 
d="M130 160h-80v320h80v-320zM290 160h-80v160h80v-160zM210 0h-80v160h80v-160zM530 0h-80v160h80v-160zM610 160h-80v320h80v-320zM370 320h-80v160h80v-160zM450 160h-80v160h80v-160z" />
    <glyph glyph-name="x" unicode="x" horiz-adv-x="420" 
d="M130 0h-80v160h80v-160zM370 0h-80v160h80v-160zM130 320h-80v160h80v-160zM370 320h-80v160h80v-160zM290 160h-160v160h160v-160z" />
    <glyph glyph-name="y" unicode="y" horiz-adv-x="429" 
d="M379 160h-80v320h80v-320zM139 -80v240h160v-80h-80v-160h-80zM139 -160h-160v80h160v-80zM139 160h-80v320h80v-320z" />
    <glyph glyph-name="y" unicode="&#xff;" horiz-adv-x="429" 
d="M379 160h-80v320h80v-320zM139 -80v240h160v-80h-80v-160h-80zM139 -160h-160v80h160v-80zM139 160h-80v320h80v-320z" />
    <glyph glyph-name="y" unicode="&#xfd;" horiz-adv-x="429" 
d="M379 160h-80v320h80v-320zM139 -80v240h160v-80h-80v-160h-80zM139 -160h-160v80h160v-80zM139 160h-80v320h80v-320z" />
    <glyph glyph-name="z" unicode="z" horiz-adv-x="420" 
d="M370 480v-160h-80v80h-240v80h320zM50 160h80v-80h240v-80h-320v160zM210 160h-80v80h80v-80zM290 240h-80v80h80v-80z" />
    <glyph glyph-name="braceleft" unicode="{" horiz-adv-x="340" 
d="M210 -63h-80v320h80v-320zM290 -143h-80v80h80v-80zM290 657h-80v80h80v-80zM130 257h-80v80h80v-80zM210 337h-80v320h80v-320z" />
    <glyph glyph-name="verticalbar" unicode="|" horiz-adv-x="180" 
d="M130 0h-80v720h80v-720z" />
    <glyph glyph-name="braceright" unicode="}" horiz-adv-x="340" 
d="M130 657h-80v80h80v-80zM210 -63h-80v320h80v-320zM130 -143h-80v80h80v-80zM210 337h-80v320h80v-320zM290 257h-80v80h80v-80z" />
    <glyph glyph-name="asciitilde" unicode="~" horiz-adv-x="580" 
d="M450 600h-160v80h160v-80zM130 600h-80v80h80v-80zM530 680h-80v80h80v-80zM290 680h-160v80h160v-80z" />
    <glyph glyph-name="nonbreakingspace" unicode="&#xa0;" horiz-adv-x="219" 
 />
    <glyph glyph-name="section" unicode="&#xa7;" horiz-adv-x="420" 
d="M130 480h-80v80h80v-80zM290 560h-160v80h160v-80zM130 79l0.5 0.5l0.5 0.5h159v-80h-160v79zM370 80h-80v80h80v-80zM290 400h80v-160h-80v80h-80v80h-80v80h80h80v-80zM210 320v-80h80v-80h-80h-80v80h-80v160h80v-80h80z" />
    <glyph glyph-name="softhyphen" unicode="&#xad;" horiz-adv-x="0" 
 />
    <glyph glyph-name="Agrave" unicode="&#xc0;" horiz-adv-x="660" 
d="M450 400h-80v160h80v-160zM130 0h-80v160h80v-160zM370 560h-80v160h80v-160zM610 0h-80v160h80v-160zM450 400h80v-240h-400v240h80v-160h240v160zM290 400h-80v160h80v-160zM410 765h-80v79h80v-79zM330 844h-79v80h79v-80z" />
    <glyph glyph-name="Aacute" unicode="&#xc1;" horiz-adv-x="660" 
d="M370 560h-80v160h80v-160zM450 400h-80v160h80v-160zM130 0h-80v160h80v-160zM610 0h-80v160h80v-160zM290 400h-80v160h80v-160zM450 400h80v-240h-400v240h80v-160h240v160zM330 765h-79v79h79v-79zM410 844h-80v80h80v-80z" />
    <glyph glyph-name="Acircumflex" unicode="&#xc2;" horiz-adv-x="660" 
d="M370 560h-80v160h80v-160zM450 400h80v-240h-400v240h80v-160h240v160zM450 400h-80v160h80v-160zM130 0h-80v160h80v-160zM610 0h-80v160h80v-160zM290 400h-80v160h80v-160zM291 830v-78h-79v80h78v78h80v-78h77v-80h-79v78h-77z" />
    <glyph glyph-name="Atilde" unicode="&#xc3;" horiz-adv-x="660" 
d="M246 749h-80v80h80v-80zM406 749h-80v80h80v-80zM325 827h-79v80h79v-80zM485 828h-79v79h79v-79zM130 0h-80v160h80v-160zM610 0h-80v160h80v-160zM450 400h80v-240h-400v240h80v-160h240v160zM290 400h-80v160h80v-160zM450 400h-80v160h80v-160zM370 560h-80v160h80
v-160z" />
    <glyph glyph-name="Adieresis" unicode="&#xc4;" horiz-adv-x="660" 
d="M450 400h-80v160h80v-160zM370 560h-80v160h80v-160zM130 0h-80v160h80v-160zM610 0h-80v160h80v-160zM450 400h80v-240h-400v240h80v-160h240v160zM290 400h-80v160h80v-160zM253 765h-79v79h79v-79zM493 765h-79v79h79v-79z" />
    <glyph glyph-name="Aring" unicode="&#xc5;" horiz-adv-x="660" 
d="M210 719v-79h-80v79h80v80h240v-80h80v-79h-80v79h-240zM130 0h-80v160h80v-160zM610 0h-80v160h80v-160zM290 560v-160h-80v160v80h240v-80v-160h-80v160h-80zM450 400h80v-240h-400v240h80v-160h240v160z" />
    <glyph glyph-name="AE" unicode="&#xc6;" horiz-adv-x="810" 
d="M760 640h-320v-240h240v-80h-240v-240h320v-80h-400v160h-230v240h80v-160h150v320h-70v160h470v-80zM130 0h-80v160h80v-160zM290 400h-80v160h80v-160z" />
    <glyph glyph-name="Ccedilla" unicode="&#xc7;" horiz-adv-x="580" 
d="M292 -106v78h80v-79h-80v-79h-79v80h79zM530 83h-80v80h80v-80zM450 3h-320v80h320v-80zM130 83h-80v560h80v-560zM530 563h-80v80h80v-80zM450 643h-320v80h320v-80z" />
    <glyph glyph-name="Egrave" unicode="&#xc8;" 
d="M333 765h-80v79h80v-79zM254 844h-80v80h80v-80zM450 640h-320v-240h240v-80h-240v-240h320v-80h-400v720h400v-80z" />
    <glyph glyph-name="Eacute" unicode="&#xc9;" 
d="M254 765h-80v79h80v-79zM333 844h-80v80h80v-80zM450 640h-320v-240h240v-80h-240v-240h320v-80h-400v720h400v-80z" />
    <glyph glyph-name="Ecircumflex" unicode="&#xca;" 
d="M215 830v-78h-80v80h78v78h80v-78h78v-80h-80v78h-76zM450 640h-320v-240h240v-80h-240v-240h320v-80h-400v720h400v-80z" />
    <glyph glyph-name="Edieresis" unicode="&#xcb;" 
d="M173 752h-79v80h79v-80zM413 752h-79v80h79v-80zM450 640h-320v-240h240v-80h-240v-240h320v-80h-400v720h400v-80z" />
    <glyph glyph-name="Igrave" unicode="&#xcc;" horiz-adv-x="259" 
d="M209 768h-80v80h80v-80zM130 848h-80v80h80v-80zM169 0h-80v720h80v-720z" />
    <glyph glyph-name="Iacute" unicode="&#xcd;" horiz-adv-x="259" 
d="M130 768h-80v80h80v-80zM209 848h-80v80h80v-80zM169 0h-80v720h80v-720z" />
    <glyph glyph-name="Icircumflex" unicode="&#xce;" horiz-adv-x="336" 
d="M208 0h-80v720h80v-720zM208 836h78v-80h-80v78h-76v-78h-80v80h78v78h80v-78z" />
    <glyph glyph-name="Idieresis" unicode="&#xcf;" horiz-adv-x="420" 
d="M130 756h-80v80h80v-80zM370 756h-80v80h80v-80zM250 0h-80v720h80v-720z" />
    <glyph glyph-name="Ntilde" unicode="&#xd1;" horiz-adv-x="580" 
d="M208 754h-80v79h80v-79zM368 754h-80v79h80v-79zM288 832h-80v80h80v-80zM448 832h-80v80h80v-80zM290 320h-80v160h80v-160zM450 720h80v-720h-80v80h-80v160h80v480zM130 640h80v-160h-80v-480h-80v720h80v-80zM370 240h-80v80h80v-80z" />
    <glyph glyph-name="Ograve" unicode="&#xd2;" horiz-adv-x="580" 
d="M372 766h-80v79h80v-79zM293 845h-80v80h80v-80zM450 640h-320v80h320v-80zM530 80h-80v560h80v-560zM450 0h-320v80h320v-80zM130 80h-80v560h80v-560z" />
    <glyph glyph-name="Oacute" unicode="&#xd3;" horiz-adv-x="580" 
d="M293 766h-80v79h80v-79zM372 845h-80v80h80v-80zM450 640h-320v80h320v-80zM530 80h-80v560h80v-560zM450 0h-320v80h320v-80zM130 80h-80v560h80v-560z" />
    <glyph glyph-name="Ocircumflex" unicode="&#xd4;" horiz-adv-x="580" 
d="M130 80h-80v560h80v-560zM450 0h-320v80h320v-80zM450 640h-320v80h320v-80zM530 80h-80v560h80v-560zM254 831v-78h-80v80h79v78h79v-78h78v-80h-80v78h-76z" />
    <glyph glyph-name="Otilde" unicode="&#xd5;" horiz-adv-x="580" 
d="M130 80h-80v560h80v-560zM450 0h-320v80h320v-80zM450 640h-320v80h320v-80zM530 80h-80v560h80v-560zM211 749h-80v80h80v-80zM371 749h-80v80h80v-80zM291 827h-80v80h80v-80zM450 828h-79v79h79v-79z" />
    <glyph glyph-name="Odieresis" unicode="&#xd6;" horiz-adv-x="580" 
d="M450 0h-320v80h320v-80zM130 80h-80v560h80v-560zM530 80h-80v560h80v-560zM450 640h-320v80h320v-80zM210 764h-80v79h80v-79zM450 764h-80v79h80v-79z" />
    <glyph glyph-name="Oslash" unicode="&#xd8;" horiz-adv-x="580" 
d="M530 80h-80v560h80v-560zM209 158v-78h241v-80h-320v80v0h-80v560h80v-481h79v200h80v202h81v79h-240v80h320v-80h-1v-79h-78v-202h-81v-201h-81z" />
    <glyph glyph-name="Ugrave" unicode="&#xd9;" horiz-adv-x="580" 
d="M373 764h-80v79h80v-79zM294 844h-80v79h80v-79zM450 0h-320v80h320v-80zM130 80h-80v640h80v-640zM530 80h-80v640h80v-640z" />
    <glyph glyph-name="Uacute" unicode="&#xda;" horiz-adv-x="580" 
d="M294 764h-80v79h80v-79zM373 844h-80v79h80v-79zM130 80h-80v640h80v-640zM450 0h-320v80h320v-80zM530 80h-80v640h80v-640z" />
    <glyph glyph-name="Ucircumflex" unicode="&#xdb;" horiz-adv-x="580" 
d="M450 0h-320v80h320v-80zM130 80h-80v640h80v-640zM530 80h-80v640h80v-640zM255 830v-79h-80v80h79v78h79v-78h78v-80h-80v79h-76z" />
    <glyph glyph-name="Udieresis" unicode="&#xdc;" horiz-adv-x="580" 
d="M130 80h-80v640h80v-640zM450 0h-320v80h320v-80zM530 80h-80v640h80v-640zM212 765h-80v79h80v-79zM452 765h-80v79h80v-79z" />
    <glyph glyph-name="germandbls" unicode="&#xdf;" 
d="M130 400h240v-80h-240v-232h-1v-88h-79v720h320v-80h-240v-240zM450 80h-80v240h80v-240zM370 0h-125v80h125v-80zM450 400h-80v240h80v-240z" />
    <glyph glyph-name="agrave" unicode="&#xe0;" 
d="M130 80h-80v160h80v-160zM370 400h-240v80h240v-80zM370 400h80v-400h-320v80h240v160h-240v80h240v80zM260 526v79h-79v79h79v-79h80v-79h-80z" />
    <glyph glyph-name="aacute" unicode="&#xe1;" 
d="M370 400h80v-400h-320v80h240v160h-240v80h240v80zM130 80h-80v160h80v-160zM370 400h-240v80h240v-80zM260 605v-79h-79v79h79v79h80v-79h-80z" />
    <glyph glyph-name="acircumflex" unicode="&#xe2;" 
d="M213 512h-80v80h80v-80zM373 512h-80v80h80v-80zM293 591h-80v79h80v-79zM130 80h-80v160h80v-160zM370 400h-240v80h240v-80zM370 400h80v-400h-320v80h240v160h-240v80h240v80z" />
    <glyph glyph-name="atilde" unicode="&#xe3;" 
d="M175 508h-80v80h80v-80zM335 508h-80v80h80v-80zM254 586h-79v80h79v-80zM414 587h-79v80h79v-80zM370 400h80v-400h-320v80h240v160h-240v80h240v80zM130 80h-80v160h80v-160zM370 400h-240v80h240v-80z" />
    <glyph glyph-name="adieresis" unicode="&#xe4;" 
d="M130 80h-80v160h80v-160zM370 400h-240v80h240v-80zM370 400h80v-400h-320v80h240v160h-240v80h240v80zM208 526h-79v79h79v-79zM369 526h-80v79h80v-79z" />
    <glyph glyph-name="aring" unicode="&#xe5;" 
d="M130 80h-80v160h80v-160zM370 400h80v-400h-320v80h240v160h-240v80h240v80zM370 400h-240v80h240v-80zM130 559v-79h-80v79h80v80h240v-80h80v-79h-80v79h-240z" />
    <glyph glyph-name="ae" unicode="&#xe6;" horiz-adv-x="820" 
d="M770 80h-80v80h80v-80zM770 240h-320v-160h240v-80h-560v80h240v160h-240v80h240v80h-240v80h240v-80h80v80h240v-80h-240v-80h240v80h80v-160zM130 80h-80v160h80v-160z" />
    <glyph glyph-name="ccedilla" unicode="&#xe7;" 
d="M253 -120v78h79v-79h-79v-79h-80v80h80zM370 -11h-240v80h240v-80zM450 69h-80v80h80v-80zM370 389h-240v80h240v-80zM450 309h-80v80h80v-80zM130 69h-80v320h80v-320z" />
    <glyph glyph-name="egrave" unicode="&#xe8;" 
d="M450 80h-80v80h80v-80zM450 240h-320v-160h-80v320h80v-80h240v80h80v-160zM370 0h-240v80h240v-80zM370 400h-240v80h240v-80zM264 526v78h-80v80h80v-79h79v-79h-79z" />
    <glyph glyph-name="eacute" unicode="&#xe9;" 
d="M450 80h-80v80h80v-80zM370 0h-240v80h240v-80zM450 240h-320v-160h-80v320h80v-80h240v80h80v-160zM370 400h-240v80h240v-80zM264 604v-78h-80v79h80v79h79v-80h-79z" />
    <glyph glyph-name="ecircumflex" unicode="&#xea;" 
d="M216 512h-79v80h79v-80zM376 512h-79v80h79v-80zM296 590h-80v80h80v-80zM450 80h-80v80h80v-80zM450 240h-320v-160h-80v320h80v-80h240v80h80v-160zM370 400h-240v80h240v-80zM370 0h-240v80h240v-80z" />
    <glyph glyph-name="edieresis" unicode="&#xeb;" 
d="M216 512h-79v80h79v-80zM376 512h-79v80h79v-80zM450 240h-320v-160h-80v320h80v-80h240v80h80v-160zM450 80h-80v80h80v-80zM370 0h-240v80h240v-80zM370 400h-240v80h240v-80z" />
    <glyph glyph-name="igrave" unicode="&#xec;" horiz-adv-x="259" 
d="M130 609h79v-79h-80v78h-79v80h80v-79zM163 0h-80v480h80v-480z" />
    <glyph glyph-name="iacute" unicode="&#xed;" horiz-adv-x="259" 
d="M129 688h80v-80h-79v-78h-80v79h79v79zM174 0h-80v480h80v-480z" />
    <glyph glyph-name="icircumflex" unicode="&#xee;" horiz-adv-x="340" 
d="M130 516h-80v80h80v-80zM290 516h-80v80h80v-80zM209 594h-79v80h79v-80zM211 0h-80v480h80v-480z" />
    <glyph glyph-name="idieresis" unicode="&#xef;" horiz-adv-x="340" 
d="M211 0h-80v480h80v-480zM130 516h-80v80h80v-80zM290 516h-80v80h80v-80z" />
    <glyph glyph-name="ntilde" unicode="&#xf1;" 
d="M174 513h-80v79h80v-79zM334 513h-79v79h79v-79zM254 591h-80v79h80v-79zM414 591h-80v80h80v-80zM450 0h-80v400h80v-400zM130 480v-80h80v-80h-80v-320h-80v480h80zM370 400h-160v80h160v-80z" />
    <glyph glyph-name="ograve" unicode="&#xf2;" 
d="M130 80h-80v320h80v-320zM370 0h-240v80h240v-80zM450 80h-80v320h80v-320zM370 400h-240v80h240v-80zM262 524v79h-79v80h79v-79h80v-80h-80z" />
    <glyph glyph-name="oacute" unicode="&#xf3;" 
d="M130 80h-80v320h80v-320zM370 0h-240v80h240v-80zM370 400h-240v80h240v-80zM450 80h-80v320h80v-320zM262 603v-79h-79v80h79v79h80v-80h-80z" />
    <glyph glyph-name="ocircumflex" unicode="&#xf4;" 
d="M208 509h-79v80h79v-80zM368 509h-79v80h79v-80zM288 588h-80v79h80v-79zM450 80h-80v320h80v-320zM130 80h-80v320h80v-320zM370 0h-240v80h240v-80zM370 400h-240v80h240v-80z" />
    <glyph glyph-name="otilde" unicode="&#xf5;" 
d="M370 0h-240v80h240v-80zM130 80h-80v320h80v-320zM450 80h-80v320h80v-320zM370 400h-240v80h240v-80zM175 508h-80v80h80v-80zM335 508h-80v80h80v-80zM254 587h-79v79h79v-79zM414 587h-79v80h79v-80z" />
    <glyph glyph-name="odieresis" unicode="&#xf6;" 
d="M370 0h-240v80h240v-80zM130 80h-80v320h80v-320zM370 400h-240v80h240v-80zM450 80h-80v320h80v-320zM210 525h-80v79h80v-79zM370 525h-80v79h80v-79z" />
    <glyph glyph-name="oslash" unicode="&#xf8;" 
d="M370 0h-240v80h240v-80zM450 80h-80v320h80v-320zM209 80h-79h-80v320h80v-240h79v160h81v-161h-81v-79zM290 321v79h-160v80h240v-80v-79h-80z" />
    <glyph glyph-name="ugrave" unicode="&#xf9;" 
d="M290 0h-160v80h160v-80zM130 80h-80v400h80v-400zM370 480h80v-480h-80v80h-80v80h80v320zM262 524v78h-80v80h80v-79h79v-79h-79z" />
    <glyph glyph-name="uacute" unicode="&#xfa;" 
d="M290 0h-160v80h160v-80zM370 480h80v-480h-80v80h-80v80h80v320zM130 80h-80v400h80v-400zM262 602v-78h-80v79h80v79h79v-80h-79z" />
    <glyph glyph-name="ucircumflex" unicode="&#xfb;" 
d="M290 0h-160v80h160v-80zM130 80h-80v400h80v-400zM370 480h80v-480h-80v80h-80v80h80v320zM214 510h-79v80h79v-80zM374 510h-79v80h79v-80zM294 588h-79v80h79v-80z" />
    <glyph glyph-name="udieresis" unicode="&#xfc;" 
d="M290 0h-160v80h160v-80zM130 80h-80v400h80v-400zM370 480h80v-480h-80v80h-80v80h80v320zM209 525h-80v79h80v-79zM369 525h-79v79h79v-79z" />
    <glyph glyph-name="OE" unicode="&#x152;" horiz-adv-x="899" 
d="M849 640h-319v-240h239v-80h-239v-239h-1v-1h320v-80h-400v1h-319v80h319v559h-319v81h320v-1h399v-80zM130 81h-80v559h80v-559z" />
    <glyph glyph-name="oe" unicode="&#x153;" horiz-adv-x="820" 
d="M770 80h-80v80h80v-80zM690 0h-240v80h240v-80zM770 240h-320v-160h-80v320h80v-80h240v80h80v-160zM690 400h-240v80h240v-80zM370 400h-240v80h240v-80zM370 0h-240v80h240v-80zM130 80h-80v320h80v-320z" />
    <glyph glyph-name="bullet" unicode="&#x2022;" horiz-adv-x="340" 
d="M290 529h-80v80h80v-80zM130 529h-80v80h80v-80zM290 689h-80v80h80v-80zM130 689h-80v80h80v-80zM210 609h-80v80h80v-80z" />
    <glyph glyph-name="Euro" unicode="&#x20ac;" horiz-adv-x="611" 
d="M481 0h-320v80h320v-80zM81 484v156h80v-156h289v-80h-289v-96h289v-80h-289v-148h-80v148h-31v80h31v96h-31v80h31zM561 80h-80v80h80v-80zM481 640h-320v80h320v-80zM561 560h-80v80h80v-80z" />
    <glyph glyph-name="H18533" unicode="&#x25cf;" horiz-adv-x="340" 
d="M290 529h-80v80h80v-80zM130 529h-80v80h80v-80zM290 689h-80v80h80v-80zM130 689h-80v80h80v-80zM210 609h-80v80h80v-80z" />
    <glyph glyph-name="unie900" unicode="&#xe900;" 
d="M130 0h-80v80h80v-80zM290 0h-80v80h80v-80zM450 0h-80v80h80v-80z" />
    <glyph glyph-name="nonmarkingreturn" horiz-adv-x="333" 
 />
  </font>
</defs>
</svg>
